<?xml version="1.0" encoding="UTF-8"?>
<svg xmlns="http://www.w3.org/2000/svg" style="display: none;">

    <!-- Bars Icon -->
    <symbol id="sh-bars" width="24" height="24" viewBox="0 0 24 24" fill="none">
      <path d="M21.9375 5.8125H2.0625C1.75186 5.8125 1.5 5.56064 1.5 5.25V3.75C1.5 3.43936 1.75186 3.1875 2.0625 3.1875H21.9375C22.2481 3.1875 22.5 3.43936 22.5 3.75V5.25C22.5 5.56064 22.2481 5.8125 21.9375 5.8125ZM21.9375 13.3125H2.0625C1.75186 13.3125 1.5 13.0606 1.5 12.75V11.25C1.5 10.9394 1.75186 10.6875 2.0625 10.6875H21.9375C22.2481 10.6875 22.5 10.9394 22.5 11.25V12.75C22.5 13.0606 22.2481 13.3125 21.9375 13.3125ZM21.9375 20.8125H2.0625C1.75186 20.8125 1.5 20.5606 1.5 20.25V18.75C1.5 18.4394 1.75186 18.1875 2.0625 18.1875H21.9375C22.2481 18.1875 22.5 18.4394 22.5 18.75V20.25C22.5 20.5606 22.2481 20.8125 21.9375 20.8125Z" fill="currentColor"/>
    </symbol>    
    
    <!-- Reply Icon -->
    <symbol id="sh-reply" width="16" height="14" viewBox="0 0 16 14" fill="none">
      <path d="M11.5006 4.25H4.50149C4.22653 4.25 4.00156 4.475 4.00156 4.75V5.25C4.00156 5.525 4.22653 5.75 4.50149 5.75H11.5006C11.7755 5.75 12.0005 5.525 12.0005 5.25V4.75C12.0005 4.475 11.7755 4.25 11.5006 4.25ZM8.50097 7.25H4.50149C4.22653 7.25 4.00156 7.475 4.00156 7.75V8.25C4.00156 8.525 4.22653 8.75 4.50149 8.75H8.50097C8.77594 8.75 9.00091 8.525 9.00091 8.25V7.75C9.00091 7.475 8.77594 7.25 8.50097 7.25ZM8.00104 0C3.58286 0 0.00207374 2.90937 0.00207374 6.5C0.00207374 7.9875 0.623868 9.35 1.65498 10.4469C1.18942 11.6781 0.220795 12.7219 0.205172 12.7344C-0.00105086 12.9531 -0.0572936 13.2719 0.061441 13.5469C0.180176 13.8219 0.452015 14 0.751977 14C2.6736 14 4.18903 13.1969 5.09829 12.5531C6.0013 12.8375 6.97617 13 8.00104 13C12.4192 13 16 10.0906 16 6.5C16 2.90937 12.4192 0 8.00104 0ZM8.00104 11.5C7.16677 11.5 6.34188 11.3719 5.55135 11.1219L4.84207 10.8969L4.23278 11.3281C3.78596 11.6438 3.17354 11.9969 2.43613 12.2344C2.66423 11.8562 2.88608 11.4312 3.05793 10.9781L3.38913 10.1L2.74547 9.41875C2.17992 8.81563 1.50188 7.81875 1.50188 6.5C1.50188 3.74375 4.41713 1.5 8.00104 1.5C11.5849 1.5 14.5002 3.74375 14.5002 6.5C14.5002 9.25625 11.5849 11.5 8.00104 11.5Z" fill="currentcolor"/>
    </symbol>

    <!-- Bell Icon -->
    <symbol id="sh-bell" width="15" height="15" viewBox="0 0 24 24" fill="none">
      <path d="M21.6156 16.9823C20.7531 16.0092 19.1393 14.5453 19.1393 9.75C19.1393 6.10781 16.7071 3.19219 13.4277 2.47688V1.5C13.4277 0.671719 12.7884 0 12 0C11.2116 0 10.5723 0.671719 10.5723 1.5V2.47688C7.29287 3.19219 4.86074 6.10781 4.86074 9.75C4.86074 14.5453 3.2469 16.0092 2.3844 16.9823C2.11655 17.2847 1.9978 17.6461 2.00003 18C2.00494 18.7687 2.57949 19.5 3.43306 19.5H20.5669C21.4205 19.5 21.9955 18.7687 22 18C22.0022 17.6461 21.8835 17.2842 21.6156 16.9823ZM5.01475 17.25C5.96207 15.9389 6.99778 13.7658 7.00269 9.77719C7.00269 9.76781 7.00002 9.75937 7.00002 9.75C7.00002 6.85031 9.2384 4.5 12 4.5C14.7616 4.5 17 6.85031 17 9.75C17 9.75937 16.9973 9.76781 16.9973 9.77719C17.0022 13.7662 18.0379 15.9394 18.9852 17.25H5.01475ZM12 24C13.5768 24 14.8558 22.657 14.8558 21H9.14421C9.14421 22.657 10.4232 24 12 24Z" fill="currentColor"/>
    </symbol>

    <!-- User Icon -->
    <symbol id="sh-user" width="15" height="15" viewBox="0 0 24 24" fill="none">
      <path d="M16.2 14.25C14.8547 14.25 14.2078 15 12 15C9.79219 15 9.15 14.25 7.8 14.25C4.32187 14.25 1.5 17.0719 1.5 20.55V21.75C1.5 22.9922 2.50781 24 3.75 24H20.25C21.4922 24 22.5 22.9922 22.5 21.75V20.55C22.5 17.0719 19.6781 14.25 16.2 14.25ZM20.25 21.75H3.75V20.55C3.75 18.3188 5.56875 16.5 7.8 16.5C8.48437 16.5 9.59531 17.25 12 17.25C14.4234 17.25 15.5109 16.5 16.2 16.5C18.4312 16.5 20.25 18.3188 20.25 20.55V21.75ZM12 13.5C15.7266 13.5 18.75 10.4766 18.75 6.75C18.75 3.02344 15.7266 0 12 0C8.27344 0 5.25 3.02344 5.25 6.75C5.25 10.4766 8.27344 13.5 12 13.5ZM12 2.25C14.4797 2.25 16.5 4.27031 16.5 6.75C16.5 9.22969 14.4797 11.25 12 11.25C9.52031 11.25 7.5 9.22969 7.5 6.75C7.5 4.27031 9.52031 2.25 12 2.25Z" fill="currentColor"/>
    </symbol>

    <!-- Thumbtack Icon -->
    <symbol id="sh-thumbtack" width="18" height="24" viewBox="0 0 18 24" fill="none">
      <path d="M14.3672 8.74688L14.1 6.75H15.375C15.9937 6.75 16.5 6.24375 16.5 5.625V1.125C16.5 0.50625 15.9937 0 15.375 0H2.625C2.00625 0 1.5 0.50625 1.5 1.125V5.625C1.5 6.24375 2.00625 6.75 2.625 6.75H3.9L3.63281 8.74688C1.3875 10.2844 0 12.6891 0 15.375C0 15.9937 0.50625 16.5 1.125 16.5H7.875V21.375C7.875 21.4172 7.87969 21.4547 7.89375 21.4922L8.64375 23.7422C8.75625 24.0844 9.24375 24.0844 9.35625 23.7422L10.1063 21.4922C10.1203 21.4547 10.125 21.4125 10.125 21.375V16.5H16.875C17.4937 16.5 18 15.9937 18 15.375C18 12.6891 16.6125 10.2844 14.3672 8.74688ZM2.36719 14.25C2.75625 12.4453 4.03594 10.9688 5.71875 10.1344L6.46875 4.5H3.75V2.25H14.25V4.5H11.5312L12.2812 10.1344C13.9594 10.9688 15.2437 12.45 15.6328 14.25H2.36719Z" fill="currentColor"/>
    </symbol>
    
    <!-- Shield-Alt Icon -->
    <symbol id="sh-shield-alt" width="24" height="24" viewBox="0 0 24 24" fill="none">
      <path d="M12 19.2001V4.68755L5.30156 7.47661C5.69531 12.9235 8.35781 16.9735 12 19.2001ZM21.8672 3.92349L12.8672 0.173489C12.593 0.0597607 12.2991 0.0012207 12.0023 0.0012207C11.7055 0.0012207 11.4117 0.0597607 11.1375 0.173489L2.1375 3.92349C1.29844 4.27036 0.75 5.09068 0.75 6.00005C0.75 15.3047 6.11719 21.736 11.1328 23.8266C11.6859 24.0563 12.3094 24.0563 12.8625 23.8266C16.8797 22.1532 23.25 16.3735 23.25 6.00005C23.25 5.09068 22.7016 4.27036 21.8672 3.92349ZM12 21.7501C7.42969 19.8469 3 13.936 3 6.00005L12 2.25005L21 6.00005C21 14.1469 16.3875 19.9219 12 21.7501Z" fill="currentColor"/>
    </symbol>

    <!-- Search Icon -->
    <symbol id="sh-search" width="24" height="24" viewBox="0 0 24 24" fill="none">
      <path d="M23.8348 21.9786L18.1444 16.2883C18.0366 16.1805 17.896 16.1242 17.746 16.1242H17.1273C18.6038 14.4134 19.499 12.1869 19.499 9.74952C19.499 4.36385 15.1352 0 9.74952 0C4.36385 0 0 4.36385 0 9.74952C0 15.1352 4.36385 19.499 9.74952 19.499C12.1869 19.499 14.4134 18.6038 16.1242 17.1273V17.746C16.1242 17.896 16.1851 18.0366 16.2883 18.1444L21.9786 23.8348C22.1989 24.0551 22.5551 24.0551 22.7754 23.8348L23.8348 22.7754C24.0551 22.5551 24.0551 22.1989 23.8348 21.9786ZM9.74952 17.2492C5.60598 17.2492 2.24989 13.8931 2.24989 9.74952C2.24989 5.60598 5.60598 2.24989 9.74952 2.24989C13.8931 2.24989 17.2492 5.60598 17.2492 9.74952C17.2492 13.8931 13.8931 17.2492 9.74952 17.2492Z" fill="currentColor"/>
    </symbol>

    <!-- Pencil Icon -->
    <symbol id="sh-pencil" width="24" height="24" viewBox="0 0 24 24" fill="none">
      <path d="M23.0441 3.45116L20.5194 0.927462C19.2829 -0.309052 17.2815 -0.30924 16.0447 0.927415L1.16765 15.7073L0.0154162 22.6915C-0.109974 23.4515 0.548291 24.1099 1.30856 23.9846L8.29269 22.8323L23.0736 7.95524C24.3078 6.72097 24.3196 4.72654 23.0441 3.45116ZM5.65517 14.1562L13.6361 6.2271L17.7728 10.3639L9.84373 18.3447V16.4062H7.59374V14.1562H5.65517ZM3.84993 21.4749L2.5251 20.1501L3.09416 16.7007L3.95666 15.8437H5.90624V18.0937H8.15623V20.0433L7.29927 20.9058L3.84993 21.4749ZM21.6148 6.49681L21.6124 6.49921L21.61 6.5016L19.3586 8.76772L15.2322 4.64132L17.4984 2.38991L17.5007 2.38757L17.5031 2.38523C17.9318 1.95651 18.627 1.95121 19.061 2.38518L21.5854 4.90958C22.0484 5.37257 22.0513 6.06032 21.6148 6.49681Z" fill="currentColor"/>
    </symbol>

    <!-- Lock Icon -->
    <symbol id="sh-lock" width="15" height="15" viewBox="0 0 24 24" fill="none">
      <path d="M20.25 9.00001H18.75V6.81564C18.75 3.08439 15.75 0.00939667 12.0187 2.16765e-05C8.28749 -0.00935331 5.25 3.02346 5.25 6.75001V9.00001H3.75C2.50781 9.00001 1.5 10.0078 1.5 11.25V21.75C1.5 22.9922 2.50781 24 3.75 24H20.25C21.4922 24 22.5 22.9922 22.5 21.75V11.25C22.5 10.0078 21.4922 9.00001 20.25 9.00001ZM7.49999 6.75001C7.49999 4.27033 9.52031 2.25002 12 2.25002C14.4797 2.25002 16.5 4.27033 16.5 6.75001V9.00001H7.49999V6.75001ZM20.25 21.75H3.75V11.25H20.25V21.75Z" fill="currentColor"/>
    </symbol>

    <!-- Link Icon -->
    <symbol id="sh-link" width="24" height="24" viewBox="0 0 24 24" fill="none">
      <path d="M14.7291 9.27094C17.124 11.6658 17.278 15.4719 15.1862 18.0441C14.8936 18.4064 15.0557 18.2252 11.2046 22.0762C8.64073 24.6401 4.48902 24.6424 1.92384 22.0762C-0.640739 19.5126 -0.641818 15.3612 1.92384 12.7955C3.46007 11.2592 4.3536 10.3627 4.89613 9.82093C5.24596 9.47161 5.84914 9.71058 5.85641 10.2049C5.86513 10.8024 5.93974 11.397 6.07888 11.9781C6.12416 12.167 6.06613 12.3657 5.92878 12.503L3.77961 14.6517C2.24423 16.188 2.23804 18.6779 3.77961 20.2205C5.31594 21.7558 7.8058 21.762 9.34836 20.2205L12.8729 16.6955C14.4065 15.1615 14.4093 12.6636 12.8729 11.1272C12.5616 10.8154 12.2001 10.5582 11.8035 10.3665C11.5868 10.2618 11.4668 10.0266 11.4959 9.78774C11.5595 9.26639 11.7911 8.76188 12.1904 8.36251L12.3955 8.15743C12.5654 7.98746 12.8256 7.94208 13.0405 8.0499C13.6498 8.35571 14.2211 8.76291 14.7291 9.27094ZM22.0761 1.92376C19.5109 -0.642403 15.3592 -0.640106 12.7954 1.92376C8.94429 5.77482 9.10639 5.5936 8.81379 5.95595C6.72191 8.52811 6.87594 12.3342 9.27082 14.7291C9.77886 15.2371 10.3502 15.6443 10.9595 15.9501C11.1743 16.0579 11.4345 16.0125 11.6045 15.8426L11.8096 15.6375C12.2089 15.2382 12.4405 14.7336 12.504 14.2123C12.5331 13.9734 12.4132 13.7382 12.1965 13.6335C11.7998 13.4418 11.4383 13.1846 11.1271 12.8728C9.59065 11.3364 9.59342 8.83852 11.1271 7.30454L14.6516 3.77954C16.1942 2.23797 18.684 2.24415 20.2203 3.77954C21.7619 5.3221 21.7557 7.81196 20.2203 9.34829L18.0712 11.497C17.9339 11.6343 17.8758 11.8331 17.9211 12.0219C18.0603 12.603 18.1349 13.1977 18.1436 13.7951C18.1509 14.2895 18.754 14.5284 19.1039 14.1791C19.6464 13.6373 20.5399 12.7408 22.0762 11.2046C24.6418 8.63888 24.6407 4.4874 22.0761 1.92376Z" fill="currentColor"/>
    </symbol>

    <!-- Heart Icon -->
    <symbol id="sh-heart" width="18" height="18" viewBox="0 0 24 24" fill="none">
      <path d="M21.4875 3.01411C18.7781 0.735988 14.5922 1.07818 12 3.71724C9.40782 1.07818 5.22188 0.731301 2.51251 3.01411C-1.01249 5.9813 -0.49687 10.8188 2.01563 13.3829L10.2375 21.7594C10.7063 22.2376 11.3344 22.5047 12 22.5047C12.6703 22.5047 13.2938 22.2422 13.7625 21.7641L21.9844 13.3876C24.4922 10.8235 25.0172 5.98599 21.4875 3.01411ZM20.3813 11.8032L12.1594 20.1797C12.0469 20.2922 11.9531 20.2922 11.8406 20.1797L3.61876 11.8032C1.90782 10.0594 1.56094 6.75943 3.96094 4.73911C5.78438 3.2063 8.59688 3.43599 10.3594 5.2313L12 6.90474L13.6406 5.2313C15.4125 3.42661 18.225 3.2063 20.0391 4.73443C22.4344 6.75474 22.0781 10.0735 20.3813 11.8032Z" fill="currentColor"/>
    </symbol>

    <!-- Exclamation Square Icon -->
    <symbol id="sh-exclamation-square" width="24" height="24" viewBox="0 0 24 24" fill="none">
      <path d="M22.5 3.75V20.25C22.5 21.4927 21.4927 22.5 20.25 22.5H3.75C2.50734 22.5 1.5 21.4927 1.5 20.25V3.75C1.5 2.50734 2.50734 1.5 3.75 1.5H20.25C21.4927 1.5 22.5 2.50734 22.5 3.75ZM20.25 19.9688V4.03125C20.25 3.95666 20.2204 3.88512 20.1676 3.83238C20.1149 3.77963 20.0433 3.75 19.9688 3.75H4.03125C3.95666 3.75 3.88512 3.77963 3.83238 3.83238C3.77963 3.88512 3.75 3.95666 3.75 4.03125V19.9688C3.75 20.0433 3.77963 20.1149 3.83238 20.1676C3.88512 20.2204 3.95666 20.25 4.03125 20.25H19.9688C20.0433 20.25 20.1149 20.2204 20.1676 20.1676C20.2204 20.1149 20.25 20.0433 20.25 19.9688ZM13.9688 16.5C13.9688 17.5856 13.0856 18.4688 12 18.4688C10.9144 18.4688 10.0312 17.5856 10.0312 16.5C10.0312 15.4144 10.9144 14.5312 12 14.5312C13.0856 14.5312 13.9688 15.4144 13.9688 16.5ZM10.1545 6.59058L10.4733 12.9656C10.4882 13.265 10.7354 13.5 11.0351 13.5H12.9649C13.2646 13.5 13.5118 13.265 13.5267 12.9656L13.8455 6.59058C13.8615 6.2693 13.6054 6 13.2837 6H10.7163C10.3946 6 10.1385 6.2693 10.1545 6.59058Z" fill="currentColor"/>
    </symbol>

    <!-- Comment Lines -->
    <symbol id="sh-comment-lines" width="24" height="24" viewBox="0 0 24 24" fill="none">
      <path d="M17.2509 7.875H6.75224C6.33979 7.875 6.00233 8.2125 6.00233 8.625V9.375C6.00233 9.7875 6.33979 10.125 6.75224 10.125H17.2509C17.6633 10.125 18.0008 9.7875 18.0008 9.375V8.625C18.0008 8.2125 17.6633 7.875 17.2509 7.875ZM12.7515 12.375H6.75224C6.33979 12.375 6.00233 12.7125 6.00233 13.125V13.875C6.00233 14.2875 6.33979 14.625 6.75224 14.625H12.7515C13.1639 14.625 13.5014 14.2875 13.5014 13.875V13.125C13.5014 12.7125 13.1639 12.375 12.7515 12.375ZM12.0016 1.5C5.37429 1.5 0.00311061 5.86406 0.00311061 11.25C0.00311061 13.4812 0.935802 15.525 2.48248 17.1703C1.78413 19.0172 0.331193 20.5828 0.307759 20.6016C-0.00157629 20.9297 -0.0859404 21.4078 0.0921616 21.8203C0.270263 22.2328 0.678023 22.5 1.12796 22.5C4.0104 22.5 6.28355 21.2953 7.64743 20.3297C9.00195 20.7563 10.4643 21 12.0016 21C18.6288 21 24 16.6359 24 11.25C24 5.86406 18.6288 1.5 12.0016 1.5ZM12.0016 18.75C10.7502 18.75 9.51282 18.5578 8.32703 18.1828L7.26311 17.8453L6.34916 18.4922C5.67894 18.9656 4.76031 19.4953 3.6542 19.8516C3.99634 19.2844 4.32911 18.6469 4.58689 17.9672L5.0837 16.65L4.1182 15.6281C3.26988 14.7234 2.25282 13.2281 2.25282 11.25C2.25282 7.11563 6.62569 3.75 12.0016 3.75C17.3774 3.75 21.7503 7.11563 21.7503 11.25C21.7503 15.3844 17.3774 18.75 12.0016 18.75Z" fill="currentColor"/>
    </symbol>

    <!-- Chevron Up -->
    <symbol id="sh-chevron-up" width="24" height="24" viewBox="0 0 24 24" fill="none">
      <path d="M1.78587 16.842L2.71395 17.77C2.93361 17.9897 3.28976 17.9897 3.50946 17.77L11.9999 9.29978L20.4904 17.77C20.71 17.9897 21.0662 17.9897 21.2859 17.77L22.2139 16.8419C22.4336 16.6223 22.4336 16.2661 22.2139 16.0464L12.3976 6.23017C12.178 6.01052 11.8218 6.01052 11.6021 6.23017L1.78587 16.0465C1.56617 16.2662 1.56617 16.6223 1.78587 16.842Z" fill="currentColor"/>
    </symbol>

    <!-- Chevron Down -->
    <symbol id="sh-chevron-down" width="24" height="24" viewBox="0 0 24 24" fill="none">
      <path d="M22.2141 7.15803L21.2861 6.22995C21.0664 6.0103 20.7102 6.0103 20.4905 6.22995L12.0001 14.7002L3.50964 6.23C3.28999 6.01034 2.93383 6.01034 2.71413 6.23L1.78605 7.15808C1.5664 7.37773 1.5664 7.73389 1.78605 7.95359L11.6024 17.7698C11.822 17.9895 12.1782 17.9895 12.3979 17.7698L22.2141 7.95355C22.4338 7.73384 22.4338 7.37769 22.2141 7.15803Z" fill="currentColor"/>
    </symbol>

    <!-- Chevron Left -->
    <symbol id="sh-chevron-left" width="24" height="24" viewBox="0 0 24 24" fill="none">
      <path d="M16.8417 22.2141L17.7698 21.2861C17.9895 21.0664 17.9895 20.7103 17.7698 20.4906L9.29956 12.0001L17.7698 3.50964C17.9895 3.28999 17.9895 2.93383 17.7698 2.71413L16.8418 1.78605C16.6221 1.56639 16.2659 1.56639 16.0462 1.78605L6.22995 11.6023C6.0103 11.822 6.0103 12.1781 6.22995 12.3978L16.0462 22.2141C16.2659 22.4338 16.6221 22.4338 16.8417 22.2141Z" fill="currentColor"/>
    </symbol>

    <!-- Chevron Right -->
    <symbol id="sh-chevron-right" width="24" height="24" viewBox="0 0 24 24" fill="none">
      <path d="M7.15825 1.78587L6.23017 2.7139C6.01052 2.93356 6.01052 3.28971 6.23017 3.50942L14.7004 11.9999L6.23017 20.4904C6.01052 20.71 6.01052 21.0662 6.23017 21.2859L7.15825 22.2139C7.37791 22.4336 7.73406 22.4336 7.95377 22.2139L17.77 12.3977C17.9897 12.178 17.9897 11.8219 17.77 11.6022L7.95377 1.78587C7.73406 1.56617 7.37791 1.56617 7.15825 1.78587Z" fill="currentColor"/>
    </symbol>

    <!-- Check Right -->
    <symbol id="sh-check" width="15" height="15" viewBox="0 0 24 24" fill="none">
      <path d="M20.3836 3.91254L8.05345 16.2427L3.52289 11.7122C3.30323 11.4925 2.94707 11.4925 2.72737 11.7122L1.40156 13.038C1.1819 13.2576 1.1819 13.6138 1.40156 13.8335L7.65567 20.0876C7.87532 20.3073 8.23148 20.3073 8.45118 20.0876L22.5049 6.03387C22.7246 5.81422 22.7246 5.45806 22.5049 5.23836L21.1791 3.91254C20.9594 3.69289 20.6033 3.69289 20.3836 3.91254Z" fill="currentColor"/>
    </symbol>

    <!-- Check Square -->
    <symbol id="sh-check-square" width="24" height="24" viewBox="0 0 24 24" fill="none">
      <path d="M20.25 1.5H3.75C2.50734 1.5 1.5 2.50734 1.5 3.75V20.25C1.5 21.4927 2.50734 22.5 3.75 22.5H20.25C21.4927 22.5 22.5 21.4927 22.5 20.25V3.75C22.5 2.50734 21.4927 1.5 20.25 1.5ZM20.25 20.25H3.75V3.75H20.25V20.25ZM18.5689 8.91919L10.4788 16.9444C10.2582 17.1631 9.90206 17.1617 9.6833 16.9412L5.42794 12.6514C5.20917 12.4308 5.21058 12.0747 5.43117 11.8559L6.49613 10.7995C6.71667 10.5807 7.07283 10.5821 7.29159 10.8027L10.0943 13.6282L16.7202 7.05558C16.9408 6.83681 17.2969 6.83822 17.5157 7.05877L18.5721 8.12367C18.7908 8.34427 18.7894 8.70042 18.5689 8.91919Z" fill="currentColor"/>
    </symbol>

    <!-- Caret Down -->
    <symbol id="sh-caret-down" width="15" height="15" viewBox="0 0 24 24" fill="none">
      <path d="M17.25 7.5H6.75467C4.75779 7.5 3.74529 9.92344 5.16561 11.3391L10.4109 16.5891C11.2875 17.4656 12.7125 17.4656 13.5937 16.5891L18.8437 11.3391C20.25 9.92812 19.2515 7.5 17.25 7.5ZM12 15L6.74998 9.75H17.25L12 15Z" fill="currentColor"/>
    </symbol>

</svg>