<svg width="366" height="256" viewBox="0 0 366 256" fill="none" xmlns="http://www.w3.org/2000/svg">
<g opacity="0.4">
<path d="M147.503 99.3996L194 72.3146L240.497 99.3996V153.6L194 180.685L147.503 153.6V99.3996Z" stroke="#00CBC6" stroke-width="4"/>
<path d="M234.5 12L255.718 24.25V48.75L234.5 61L213.282 48.75V24.25L234.5 12Z" fill="#576573"/>
<path d="M126.5 176L136.459 181.75V193.25L126.5 199L116.541 193.25V181.75L126.5 176Z" fill="#02BDB9"/>
<path opacity="0.8" d="M118.5 37L128.459 42.75V54.25L118.5 60L108.541 54.25V42.75L118.5 37Z" fill="#02BDB9"/>
<path d="M3.04071 31.616L11.5 26.7321L19.9593 31.616V41.384L11.5 46.268L3.04071 41.384V31.616Z" stroke="#00CBC6" stroke-width="3"/>
<path d="M328.5 0L338.459 5.75V17.25L328.5 23L318.541 17.25V5.75L328.5 0Z" fill="#02BDB9"/>
<path opacity="0.8" d="M95 37L115.785 49.25V73.75L95 86L74.2154 73.75V49.25L95 37Z" fill="#EFFAFD"/>
<path opacity="0.4" d="M241.5 127L260.12 138V160L241.5 171L222.88 160V138L241.5 127Z" fill="#EFFAFD"/>
<path d="M26.7106 132.879L39.5 125.719L52.2894 132.879V147.121L39.5 154.281L26.7106 147.121V132.879Z" stroke="#F8F7FF" stroke-width="3"/>
<path d="M207.5 222L221.789 230V246L207.5 254L193.211 246V230L207.5 222Z" fill="#8999AF"/>
<path d="M321.782 104.875L341.5 93.7233L361.218 104.875V127.125L341.5 138.277L321.782 127.125V104.875Z" stroke="#00CBC6" stroke-width="3"/>
<path opacity="0.8" d="M304 235.116L312.459 230.232L320.919 235.116V244.884L312.459 249.768L304 244.884V235.116Z" stroke="#00CBC6" stroke-width="3"/>
<path opacity="0.8" d="M283.5 188L312.512 205V239L283.5 256L254.488 239V205L283.5 188Z" fill="#EFFAFD"/>
</g>
</svg>
